<svg width="102" height="102" viewBox="0 0 102 102" fill="none" xmlns="http://www.w3.org/2000/svg">
<path d="M51 101.5C44.1828 101.5 37.5692 100.165 31.343 97.5312C25.3294 94.9877 19.9288 91.3466 15.2911 86.7089C10.6534 82.0712 7.01227 76.6706 4.46875 70.657C1.83528 64.4308 0.5 57.8172 0.5 51C0.5 44.1828 1.83528 37.5692 4.46875 31.343C7.01227 25.3294 10.6534 19.9288 15.2911 15.2911C19.9288 10.6534 25.3294 7.01227 31.343 4.46875C37.5692 1.83528 44.1828 0.5 51 0.5C57.8172 0.5 64.4308 1.83528 70.657 4.46875C76.6706 7.01227 82.0712 10.6534 86.7089 15.2911C91.3466 19.9288 94.9877 25.3294 97.5312 31.343C100.165 37.5692 101.5 44.1828 101.5 51C101.5 57.8172 100.165 64.4308 97.5312 70.657C94.9877 76.6706 91.3466 82.0712 86.7089 86.7089C82.0712 91.3466 76.6706 94.9877 70.657 97.5312C64.4308 100.165 57.8172 101.5 51 101.5Z" fill="#F2DC9E"/>
<path d="M51 1C23.3858 1 1 23.3858 1 51C1 78.6142 23.3858 101 51 101C78.6142 101 101 78.6142 101 51C101 23.3858 78.6142 1 51 1ZM51 0C57.8845 0 64.5636 1.34857 70.8518 4.00824C76.925 6.57697 82.379 10.2541 87.0625 14.9375C91.7459 19.621 95.423 25.075 97.9918 31.1482C100.651 37.4364 102 44.1155 102 51C102 57.8845 100.651 64.5636 97.9918 70.8518C95.423 76.925 91.7459 82.379 87.0625 87.0625C82.379 91.7459 76.925 95.423 70.8518 97.9918C64.5636 100.651 57.8845 102 51 102C44.1155 102 37.4364 100.651 31.1482 97.9918C25.075 95.423 19.621 91.7459 14.9375 87.0625C10.2541 82.379 6.57697 76.925 4.00824 70.8518C1.34857 64.5636 0 57.8845 0 51C0 44.1155 1.34857 37.4364 4.00824 31.1482C6.57697 25.075 10.2541 19.621 14.9375 14.9375C19.621 10.2541 25.075 6.57697 31.1482 4.00824C37.4364 1.34857 44.1155 0 51 0Z" fill="white"/>
<path d="M24.6792 43.574L15.3842 34.92C15.1423 34.6743 15.0047 34.3446 15.0001 33.9998C14.9955 33.655 15.1243 33.3218 15.3596 33.0697C15.5949 32.8176 15.9185 32.6662 16.2628 32.6471C16.6071 32.6279 16.9455 32.7426 17.2072 32.967L25.8372 41.067L27.0202 39.803C27.1302 39.6578 27.2694 39.5373 27.4289 39.4494C27.5884 39.3614 27.7646 39.308 27.946 39.2925C28.1275 39.277 28.3102 39.2998 28.4823 39.3594C28.6544 39.419 28.812 39.5142 28.945 39.6386C29.078 39.7631 29.1833 39.9141 29.2542 40.0818C29.3251 40.2496 29.3599 40.4304 29.3564 40.6125C29.353 40.7946 29.3113 40.9739 29.2341 41.1389C29.1569 41.3038 29.0459 41.4507 28.9082 41.57L27.1082 43.442C26.9656 43.6229 26.786 43.7712 26.5815 43.8772C26.3769 43.9832 26.1522 44.0444 25.9221 44.0567C25.6921 44.069 25.4621 44.0322 25.2474 43.9486C25.0328 43.865 24.8384 43.7366 24.6772 43.572L24.6792 43.574Z" fill="#672525"/>
<path d="M27.5751 37.8118L23.8751 32.7388C22.4751 30.8098 22.8051 28.9948 24.4181 27.8198C26.0311 26.6448 27.8621 26.8958 29.2801 28.8198L31.0871 31.2998C31.241 31.4666 31.3544 31.6666 31.4184 31.8843C31.4824 32.102 31.4953 32.3315 31.4561 32.555C31.4169 32.7785 31.3267 32.99 31.1924 33.1729C31.0582 33.3559 30.8835 33.5054 30.6821 33.6098L28.7371 35.0098L29.6691 36.2818C30.2281 37.0918 30.7221 37.2218 31.1691 36.8978C31.6161 36.5738 31.5421 36.0878 31.1691 35.6498V35.5448C31.0525 35.4199 30.9638 35.2716 30.9088 35.1097C30.8539 34.9479 30.8339 34.7763 30.8503 34.6061C30.8666 34.436 30.9189 34.2713 31.0036 34.1229C31.0884 33.9745 31.2037 33.8458 31.342 33.7453C31.4802 33.6448 31.6382 33.5748 31.8055 33.5399C31.9728 33.5051 32.1456 33.5061 32.3125 33.5431C32.4793 33.58 32.6365 33.6519 32.7734 33.7541C32.9104 33.8563 33.0242 33.9864 33.1071 34.1358L33.3011 34.4028C33.5794 34.7265 33.7826 35.1077 33.8961 35.5191C34.0097 35.9306 34.0308 36.362 33.958 36.7826C33.8852 37.2031 33.7202 37.6024 33.4749 37.9517C33.2295 38.3009 32.91 38.5916 32.5391 38.8028C30.9671 39.9588 29.0061 39.7808 27.5751 37.8118ZM28.7311 32.4358L27.1101 30.2558C26.4941 29.4458 26.1101 29.2558 25.6511 29.5828C25.1921 29.9098 25.2511 30.3038 25.8701 31.1548L27.4501 33.3348L28.7311 32.4358Z" fill="#672525"/>
<path d="M43.0503 28.4838C44.1123 31.5548 43.5503 33.3458 41.4293 34.0918L39.4843 34.7648C39.2693 34.8682 39.034 34.9228 38.7954 34.9248C38.5568 34.9268 38.3207 34.876 38.1039 34.7762C37.8872 34.6764 37.6952 34.5299 37.5416 34.3473C37.388 34.1647 37.2766 33.9504 37.2153 33.7198L33.2613 22.1998C33.1667 21.9804 33.1218 21.7428 33.1298 21.504C33.1378 21.2651 33.1985 21.0311 33.3075 20.8184C33.4165 20.6058 33.5712 20.4199 33.7605 20.2741C33.9498 20.1282 34.1689 20.026 34.4023 19.9748L36.1943 19.3508C38.2693 18.6378 39.7193 19.8288 40.4573 21.9358C40.9389 22.9999 40.9827 24.2107 40.5793 25.3068C41.4453 25.6078 42.3693 26.5228 43.0503 28.4838ZM36.9973 25.2428L37.7433 24.9838C38.3673 24.7648 38.5533 24.1738 38.1003 22.9088C37.6473 21.6438 37.2093 21.4578 36.5933 21.6288L35.8473 21.8878L36.9973 25.2428ZM40.4823 29.2948C39.8583 27.4548 39.2663 27.0498 38.7403 27.2448L37.8083 27.5608L39.4293 32.2448L40.3613 31.9208C40.8883 31.7268 41.0983 31.0378 40.4833 29.2628L40.4823 29.2948Z" fill="#672525"/>
<path d="M44.7438 29.465L44.1278 23.165C43.8848 20.734 45.0838 19.365 47.0698 19.165C49.0558 18.965 50.5548 20.089 50.7978 22.488L51.4218 28.752C51.6648 31.183 50.4658 32.552 48.4398 32.752C46.4138 32.952 44.9948 31.864 44.7438 29.465ZM48.8438 29.027L48.1798 22.801C48.0748 21.748 47.8228 21.401 47.2558 21.464C46.6888 21.527 46.5508 21.91 46.6558 22.955L47.2958 29.187C47.4008 30.232 47.6768 30.54 48.1708 30.487C48.6648 30.434 48.9898 30.073 48.8438 29.028V29.027Z" fill="#672525"/>
<path d="M52.6208 30.973L53.6208 22.48C53.9008 20.087 55.3758 18.979 57.3528 19.238C59.3298 19.497 60.5948 20.9 60.2788 23.287L59.2788 31.747C59.2762 31.9289 59.2355 32.1082 59.1593 32.2734C59.0831 32.4385 58.9731 32.5859 58.8363 32.7058C58.6996 32.8258 58.5392 32.9157 58.3656 32.9698C58.1919 33.0239 58.0088 33.041 57.8282 33.0199C57.6475 32.9988 57.4733 32.94 57.3167 32.8474C57.1602 32.7547 57.0249 32.6302 56.9195 32.482C56.8141 32.3337 56.7409 32.165 56.7048 31.9868C56.6687 31.8085 56.6704 31.6246 56.7098 31.447L57.6988 23.076C57.8208 22.031 57.6418 21.634 57.0828 21.569C56.5238 21.504 56.2728 21.853 56.1748 22.89L55.1858 31.269C55.1832 31.4509 55.1425 31.6302 55.0663 31.7954C54.9901 31.9605 54.8801 32.1079 54.7433 32.2278C54.6066 32.3478 54.4462 32.4377 54.2726 32.4918C54.0989 32.5459 53.9158 32.563 53.7352 32.5419C53.5545 32.5208 53.3803 32.462 53.2237 32.3694C53.0672 32.2767 52.9319 32.1522 52.8265 32.004C52.7211 31.8557 52.6479 31.687 52.6118 31.5088C52.5757 31.3305 52.5774 31.1466 52.6168 30.969L52.6208 30.973Z" fill="#672525"/>
<path d="M68.4392 31.2399C67.3392 34.2949 65.7572 35.3569 63.6822 34.5949L61.7452 33.8949C61.5129 33.8394 61.2957 33.7332 61.1092 33.584C60.9226 33.4347 60.7714 33.2461 60.6663 33.0316C60.5612 32.8171 60.5048 32.582 60.5012 32.3431C60.4975 32.1043 60.5467 31.8676 60.6452 31.6499L64.8252 20.2029C64.882 19.9695 64.9915 19.7523 65.1453 19.5678C65.2991 19.3833 65.4931 19.2365 65.7125 19.1387C65.9319 19.0409 66.1708 18.9946 66.4108 19.0035C66.6508 19.0124 66.8856 19.0762 67.0972 19.1899L68.8972 19.8339C70.9552 20.5799 71.3282 22.4189 70.5742 24.5179C70.2814 25.6499 69.5532 26.6203 68.5482 27.2179C69.0312 27.9979 69.1772 29.2869 68.4392 31.2399ZM66.0082 30.2269C66.6642 28.4359 66.4862 27.7959 65.9272 27.5609L65.0032 27.2289L63.3172 31.8889L64.2412 32.2209C64.7762 32.4229 65.3432 31.9929 66.0082 30.2269ZM65.8462 24.9029L66.5832 25.1699C67.2072 25.3969 67.6932 25.0809 68.1632 23.7839C68.6332 22.4869 68.4062 22.0739 67.7902 21.8549L67.0442 21.5789L65.8462 24.9029Z" fill="#672525"/>
<path d="M69.1529 33.064L72.6129 27.764C73.9339 25.746 75.7329 25.406 77.4189 26.5C79.1049 27.594 79.5499 29.409 78.2289 31.427L74.7689 36.727C73.4479 38.753 71.6409 39.085 69.9069 37.967C68.1729 36.849 67.8319 35.081 69.1529 33.064ZM72.6129 35.301L76.0409 30.05C76.6159 29.167 76.6409 28.737 76.1629 28.429C75.6849 28.121 75.3529 28.329 74.7629 29.239L71.3319 34.423C70.7569 35.306 70.7809 35.711 71.2019 35.987C71.6229 36.263 72.0369 36.175 72.6129 35.3V35.301Z" fill="#672525"/>
<path d="M74.33 39.19L80.448 33.226C82.182 31.549 84.022 31.605 85.416 33.048C86.81 34.491 86.858 36.354 85.132 38.032L78.974 44C78.7222 44.2061 78.4022 44.3103 78.0773 44.2919C77.7524 44.2736 77.4462 44.134 77.2192 43.9009C76.9922 43.6677 76.8609 43.3579 76.8512 43.0326C76.8416 42.7073 76.9543 42.3902 77.167 42.144L83.229 36.244C83.983 35.515 84.096 35.093 83.699 34.688C83.302 34.283 82.889 34.412 82.159 35.15L76.097 41.05C75.9752 41.1682 75.8312 41.2612 75.6734 41.3238C75.5156 41.3863 75.347 41.4172 75.1772 41.4146C75.0075 41.412 74.8399 41.376 74.6841 41.3086C74.5283 41.2413 74.3872 41.1439 74.269 41.022C74.1509 40.9001 74.0578 40.7562 73.9953 40.5984C73.9327 40.4405 73.9018 40.2719 73.9044 40.1022C73.907 39.9325 73.9431 39.7649 74.0104 39.6091C74.0778 39.4532 74.1752 39.3122 74.297 39.194L74.33 39.19Z" fill="#672525"/>
<path d="M69.3236 62.9339V59.4249C69.3236 49.6359 61.3166 41.3939 51.4956 41.5969C46.9337 41.6921 42.5905 43.5697 39.396 46.8277C36.2016 50.0858 34.4098 54.4651 34.4045 59.0279V62.9339C34.4048 63.1648 34.348 63.3922 34.2391 63.5958C34.1303 63.7994 33.9727 63.973 33.7805 64.1009L31.7705 65.4379C31.5219 65.6042 31.3334 65.846 31.2327 66.1276C31.132 66.4092 31.1246 66.7158 31.2115 67.0019L34.8495 79.1579C35.2771 80.3796 36.0605 81.4454 37.099 82.218C38.1375 82.9906 39.3835 83.4346 40.6765 83.4929H64.0886C65.0853 83.4505 66.0463 83.1095 66.8467 82.514C67.6472 81.9186 68.2502 81.0964 68.5775 80.1539L72.4916 67.0019C72.5785 66.7158 72.5711 66.4092 72.4704 66.1276C72.3697 65.846 72.1812 65.6042 71.9325 65.4379L69.9226 64.1009C69.7348 63.9702 69.582 63.7955 69.4774 63.5921C69.3728 63.3886 69.3196 63.1627 69.3226 62.9339H69.3236ZM37.9055 59.0279C37.9075 57.1495 38.2883 55.2908 39.0251 53.5629C39.7618 51.835 40.8395 50.2735 42.1935 48.9716C43.5476 47.6697 45.1503 46.6542 46.9058 45.9859C48.6613 45.3176 50.5335 45.0101 52.4105 45.0819C56.0587 45.2781 59.4905 46.8745 61.9906 49.5385C64.4907 52.2026 65.8662 55.7287 65.8306 59.3819V64.3409C65.8278 64.571 65.7687 64.7969 65.6586 64.999C65.5484 65.201 65.3905 65.373 65.1986 65.4999C64.9686 65.6546 64.6977 65.7372 64.4206 65.7372C64.1434 65.7372 63.8725 65.6546 63.6426 65.4999L61.0085 63.7409C60.7786 63.5862 60.5077 63.5036 60.2305 63.5036C59.9534 63.5036 59.6825 63.5862 59.4525 63.7409L56.8185 65.4999C56.5898 65.6539 56.3203 65.7362 56.0445 65.7362C55.7688 65.7362 55.4993 65.6539 55.2705 65.4999L52.6285 63.7409C52.3998 63.5869 52.1303 63.5047 51.8545 63.5047C51.5788 63.5047 51.3093 63.5869 51.0805 63.7409L48.4385 65.4999C48.2098 65.6539 47.9403 65.7362 47.6645 65.7362C47.3888 65.7362 47.1193 65.6539 46.8905 65.4999L44.2485 63.7409C44.0198 63.5869 43.7503 63.5047 43.4745 63.5047C43.1988 63.5047 42.9293 63.5869 42.7005 63.7409L40.0745 65.4999C39.8458 65.6539 39.5763 65.7362 39.3005 65.7362C39.0248 65.7362 38.7553 65.6539 38.5265 65.4999C38.3355 65.3727 38.1787 65.2004 38.0698 64.9983C37.961 64.7962 37.9036 64.5705 37.9025 64.3409L37.9055 59.0279ZM65.2386 79.1169C65.1199 79.3298 64.9548 79.5131 64.7555 79.6534C64.5563 79.7936 64.3279 79.8871 64.0876 79.9269H39.6555C39.4152 79.8871 39.1868 79.7936 38.9876 79.6534C38.7883 79.5131 38.6232 79.3298 38.5045 79.1169L35.4415 68.9169C35.4137 68.8112 35.4175 68.6996 35.4525 68.596C35.4875 68.4924 35.5521 68.4013 35.6383 68.334C35.7245 68.2668 35.8286 68.2262 35.9376 68.2175C36.0466 68.2088 36.1557 68.2322 36.2515 68.2849L38.4965 69.6949C38.7265 69.8459 38.9955 69.9264 39.2705 69.9264C39.5456 69.9264 39.8146 69.8459 40.0445 69.6949L42.6865 67.9279C42.9165 67.7769 43.1855 67.6965 43.4605 67.6965C43.7356 67.6965 44.0046 67.7769 44.2345 67.9279L46.8765 69.6949C47.1065 69.8459 47.3755 69.9264 47.6505 69.9264C47.9256 69.9264 48.1946 69.8459 48.4245 69.6949L51.0655 67.9259C51.2955 67.7749 51.5645 67.6945 51.8395 67.6945C52.1146 67.6945 52.3836 67.7749 52.6136 67.9259L55.2555 69.6929C55.4855 69.8439 55.7545 69.9244 56.0295 69.9244C56.3046 69.9244 56.5736 69.8439 56.8035 69.6929L59.4375 67.9259C59.669 67.7752 59.9393 67.695 60.2155 67.695C60.4918 67.695 60.7621 67.7752 60.9935 67.9259L63.6276 69.6929C63.859 69.8436 64.1293 69.9239 64.4056 69.9239C64.6818 69.9239 64.9521 69.8436 65.1836 69.6929L67.4655 68.2479C67.5597 68.1875 67.6703 68.1576 67.7822 68.1624C67.894 68.1672 68.0016 68.2064 68.0903 68.2747C68.1789 68.343 68.2443 68.4371 68.2775 68.544C68.3107 68.6509 68.31 68.7654 68.2756 68.8719L65.2386 79.1169Z" fill="#672525"/>
</svg>
