<svg width="6" height="4" viewBox="0 0 6 4" fill="none" xmlns="http://www.w3.org/2000/svg">
<path d="M0.355959 1.297e-06H4.93296C5.00337 -0.000188976 5.07225 0.02056 5.13084 0.0596174C5.18942 0.0986748 5.23507 0.154278 5.26198 0.219346C5.28888 0.284415 5.29583 0.356007 5.28194 0.425035C5.26805 0.494063 5.23394 0.557402 5.18396 0.606996L2.89596 2.9C2.82934 2.96571 2.73953 3.00255 2.64596 3.00255C2.55239 3.00255 2.46258 2.96571 2.39596 2.9L0.104959 0.606996C0.054976 0.557402 0.0208708 0.494063 0.00697849 0.425035C-0.00691382 0.356007 3.43733e-05 0.284415 0.0269408 0.219346C0.0538472 0.154278 0.0994958 0.0986748 0.158082 0.0596174C0.216669 0.02056 0.285547 -0.000188976 0.355959 1.297e-06V1.297e-06Z" fill="#20AB4E"/>
</svg>
