<svg width="15" height="16" viewBox="0 0 15 16" fill="none" xmlns="http://www.w3.org/2000/svg">
<path d="M7.5 0.0769014C6.01664 0.0769014 4.5666 0.516768 3.33323 1.34088C2.09986 2.16499 1.13856 3.33633 0.570907 4.70678C0.00324965 6.07722 -0.145275 7.58522 0.144114 9.04008C0.433503 10.4949 1.14781 11.8313 2.1967 12.8802C3.2456 13.9291 4.58197 14.6434 6.03683 14.9328C7.49168 15.2222 8.99968 15.0737 10.3701 14.506C11.7406 13.9383 12.9119 12.977 13.736 11.7437C14.5601 10.5103 15 9.06026 15 7.5769C15 5.58778 14.2098 3.68012 12.8033 2.2736C11.3968 0.867078 9.48913 0.0769014 7.5 0.0769014ZM4.055 7.0629L8.155 2.9629C8.22219 2.89539 8.30205 2.84181 8.39 2.80525C8.47795 2.7687 8.57226 2.74988 8.6675 2.74988C8.76275 2.74988 8.85706 2.7687 8.94501 2.80525C9.03296 2.84181 9.11282 2.89539 9.18 2.9629L9.694 3.4769C9.76152 3.54408 9.81509 3.62394 9.85165 3.7119C9.88821 3.79985 9.90703 3.89416 9.90703 3.9894C9.90703 4.08465 9.88821 4.17895 9.85165 4.26691C9.81509 4.35486 9.76152 4.43472 9.694 4.5019L6.62 7.5769L9.693 10.6499C9.76052 10.7171 9.81409 10.7969 9.85065 10.8849C9.88721 10.9728 9.90603 11.0672 9.90603 11.1624C9.90603 11.2576 9.88721 11.352 9.85065 11.4399C9.81409 11.5279 9.76052 11.6077 9.693 11.6749L9.179 12.1889C9.11182 12.2564 9.03196 12.31 8.94401 12.3466C8.85606 12.3831 8.76175 12.4019 8.6665 12.4019C8.57126 12.4019 8.47695 12.3831 8.389 12.3466C8.30105 12.31 8.22118 12.2564 8.154 12.1889L4.054 8.0889C3.9182 7.95265 3.84203 7.76807 3.84222 7.57569C3.84241 7.38332 3.91894 7.19889 4.055 7.0629V7.0629Z" fill="#20AB4E"/>
</svg>
