<svg width="226" height="197" viewBox="0 0 226 197" fill="none" xmlns="http://www.w3.org/2000/svg">
<path d="M202.248 14.4087C176.827 -6.82154 137.551 -3.63264 113.229 20.9612C88.9067 -3.63264 49.6308 -6.86522 24.2092 14.4087C-8.86529 42.0604 -4.02728 87.1418 19.5471 111.037L96.6915 189.099C98.8406 191.294 101.41 193.038 104.249 194.231C107.087 195.424 110.137 196.041 113.219 196.045C116.302 196.049 119.353 195.44 122.195 194.255C125.037 193.07 127.611 191.331 129.766 189.143L206.91 111.08C230.441 87.1855 235.367 42.104 202.248 14.4087ZM191.869 96.3153L114.724 174.378C113.669 175.426 112.789 175.426 111.733 174.378L34.5889 96.3153C18.5355 80.065 15.2808 49.3118 37.7996 30.4842C54.9086 16.1997 81.2978 18.3402 97.835 35.071L113.229 50.666L128.622 35.071C145.248 18.2528 171.637 16.1997 188.658 30.4405C211.133 49.2681 207.79 80.1961 191.869 96.3153Z" fill="black"/>
</svg>
