<svg width="169" height="224" viewBox="0 0 169 224" fill="none" xmlns="http://www.w3.org/2000/svg">
<path d="M75.7671 219.147C11.862 127.133 0 117.689 0 83.8724C0 37.5508 37.8074 0 84.4456 0C131.084 0 168.891 37.5508 168.891 83.8724C168.891 117.689 157.029 127.133 93.1242 219.147C92.1521 220.54 90.8549 221.678 89.3435 222.463C87.8321 223.249 86.1516 223.66 84.4456 223.66C82.7397 223.66 81.0591 223.249 79.5477 222.463C78.0363 221.678 76.7391 220.54 75.7671 219.147ZM84.4456 118.819C91.4047 118.819 98.2075 116.77 103.994 112.93C109.78 109.09 114.29 103.632 116.953 97.246C119.616 90.8603 120.313 83.8337 118.955 77.0546C117.598 70.2756 114.246 64.0487 109.326 59.1613C104.405 54.2739 98.1354 50.9455 91.31 49.5971C84.4846 48.2486 77.41 48.9407 70.9806 51.5858C64.5513 54.2308 59.056 58.71 55.1898 64.457C51.3235 70.204 49.2599 76.9606 49.2599 83.8724C49.2599 93.1409 52.967 102.03 59.5656 108.584C66.1642 115.137 75.1138 118.819 84.4456 118.819Z" fill="black"/>
</svg>
