<svg width="219" height="218" viewBox="0 0 219 218" fill="none" xmlns="http://www.w3.org/2000/svg">
<path d="M109.509 0.805176C49.2529 0.805176 0.432617 49.2939 0.432617 109.14C0.432617 168.987 49.2529 217.476 109.509 217.476C169.764 217.476 218.584 168.987 218.584 109.14C218.584 49.2939 169.764 0.805176 109.509 0.805176ZM51.452 126.614C50.0535 126.61 48.7134 126.056 47.7245 125.074C46.7356 124.092 46.1782 122.761 46.1741 121.372V96.909C46.1782 95.52 46.7356 94.189 47.7245 93.2068C48.7134 92.2246 50.0535 91.671 51.452 91.667H167.565C168.964 91.671 170.304 92.2246 171.293 93.2068C172.282 94.189 172.839 95.52 172.843 96.909V121.372C172.839 122.761 172.282 124.092 171.293 125.074C170.304 126.056 168.964 126.61 167.565 126.614H51.452Z" fill="black"/>
</svg>
