<svg width="219" height="218" viewBox="0 0 219 218" fill="none" xmlns="http://www.w3.org/2000/svg">
<path d="M109.568 0.805176C49.3124 0.805176 0.492188 49.2939 0.492188 109.14C0.492188 168.987 49.3124 217.476 109.568 217.476C169.823 217.476 218.644 168.987 218.644 109.14C218.644 49.2939 169.823 0.805176 109.568 0.805176ZM172.902 121.372C172.898 122.761 172.341 124.092 171.352 125.074C170.363 126.056 169.023 126.61 167.624 126.614H127.161V166.803C127.157 168.192 126.599 169.523 125.61 170.505C124.621 171.487 123.281 172.041 121.883 172.045H97.2529C95.8543 172.041 94.5143 171.487 93.5254 170.505C92.5364 169.523 91.9791 168.192 91.975 166.803V126.614H51.5115C50.1129 126.61 48.7728 126.056 47.7839 125.074C46.795 124.092 46.2377 122.761 46.2336 121.372V96.909C46.2377 95.52 46.795 94.189 47.7839 93.2068C48.7728 92.2246 50.1129 91.671 51.5115 91.667H91.975V51.4781C91.9791 50.0891 92.5364 48.7581 93.5254 47.7759C94.5143 46.7937 95.8543 46.2401 97.2529 46.2361H121.883C123.281 46.2401 124.621 46.7937 125.61 47.7759C126.599 48.7581 127.157 50.0891 127.161 51.4781V91.667H167.624C169.023 91.671 170.363 92.2246 171.352 93.2068C172.341 94.189 172.898 95.52 172.902 96.909V121.372Z" fill="black"/>
</svg>
