<svg width="16" height="16" viewBox="0 0 16 16" fill="none" xmlns="http://www.w3.org/2000/svg">
<path d="M14.795 12.968L11.874 10.047C11.8084 9.98136 11.7304 9.92945 11.6446 9.89426C11.5588 9.85907 11.4668 9.84129 11.374 9.84195H10.902C11.8548 8.61895 12.3053 7.07862 12.1616 5.53497C12.018 3.99132 11.291 2.56056 10.1289 1.53437C8.96682 0.508181 7.45712 -0.0361819 5.90755 0.012253C4.35799 0.060688 2.88522 0.698274 1.7895 1.79504C0.693774 2.8918 0.0575804 4.36516 0.0106108 5.91477C-0.0363588 7.46439 0.509432 8.97357 1.53672 10.1347C2.56401 11.2958 3.99545 12.0214 5.53924 12.1636C7.08303 12.3058 8.62293 11.8539 9.84503 10.9V11.377C9.84437 11.4697 9.86214 11.5617 9.89734 11.6475C9.93253 11.7334 9.98443 11.8114 10.05 11.877L12.971 14.798C13.0361 14.8634 13.1134 14.9154 13.1987 14.9508C13.2839 14.9863 13.3752 15.0045 13.4675 15.0045C13.5598 15.0045 13.6512 14.9863 13.7364 14.9508C13.8216 14.9154 13.899 14.8634 13.964 14.798L14.793 13.969C14.8591 13.9035 14.9116 13.8256 14.9475 13.7398C14.9833 13.654 15.0019 13.5619 15.0021 13.4689C15.0023 13.3759 14.9841 13.2837 14.9486 13.1977C14.913 13.1118 14.8608 13.0337 14.795 12.968ZM6.09503 9.84195C5.35335 9.84195 4.62833 9.62202 4.01164 9.20997C3.39496 8.79791 2.91431 8.21224 2.63048 7.52702C2.34665 6.84179 2.27239 6.08779 2.41709 5.36037C2.56178 4.63294 2.91893 3.96475 3.44338 3.4403C3.96783 2.91586 4.63601 2.5587 5.36344 2.41401C6.09087 2.26932 6.84487 2.34358 7.53009 2.62741C8.21532 2.91123 8.80099 3.39188 9.21304 4.00857C9.6251 4.62525 9.84503 5.35027 9.84503 6.09195C9.84556 6.58461 9.74893 7.07253 9.56067 7.52779C9.37241 7.98306 9.09623 8.39673 8.74792 8.74513C8.3996 9.09354 7.98601 9.36983 7.53079 9.55821C7.07558 9.74659 6.58768 9.84335 6.09503 9.84295V9.84195Z" fill="#20AB4E"/>
</svg>
